<?xml version="1.0" encoding="UTF-8" standalone="no"?>
<!-- Created with Inkscape (http://www.inkscape.org/) -->

<svg
   width="1920"
   height="1080"
   viewBox="0 0 1920 1080"
   version="1.1"
   id="svg1"
   xml:space="preserve"
   inkscape:version="1.4.2 (ebf0e940, 2025-05-08)"
   sodipodi:docname="logo.svg"
   xmlns:inkscape="http://www.inkscape.org/namespaces/inkscape"
   xmlns:sodipodi="http://sodipodi.sourceforge.net/DTD/sodipodi-0.dtd"
   xmlns="http://www.w3.org/2000/svg"
   xmlns:svg="http://www.w3.org/2000/svg"><sodipodi:namedview
     id="namedview1"
     pagecolor="#505050"
     bordercolor="#ffffff"
     borderopacity="1"
     inkscape:showpageshadow="0"
     inkscape:pageopacity="0"
     inkscape:pagecheckerboard="1"
     inkscape:deskcolor="#505050"
     inkscape:document-units="px"
     inkscape:zoom="0.26283521"
     inkscape:cx="620.16045"
     inkscape:cy="353.83388"
     inkscape:window-width="1720"
     inkscape:window-height="959"
     inkscape:window-x="0"
     inkscape:window-y="94"
     inkscape:window-maximized="0"
     inkscape:current-layer="svg1"><inkscape:page
       x="0"
       y="0"
       width="1920"
       height="1080"
       id="page2"
       margin="0"
       bleed="0" /></sodipodi:namedview><defs
     id="defs1" /><path
     d="m 1039.1261,660.96118 h 57.9552 v -13.01035 h -44.1978 v -77.75086 h -13.7574 z m 125.9033,0 h 57.9552 v -13.01035 h -44.1978 v -26.64321 h 37.7238 v -12.20109 h -37.7238 v -25.89621 h 44.1978 v -13.01035 h -57.9552 z m 141.964,-32.49475 13.1348,-39.65356 h 0.249 l 13.1349,39.65356 z m 37.4748,32.49475 h 14.5043 l -32.9927,-90.76121 h -11.5164 l -32.9927,90.76121 h 14.5666 l 6.972,-20.29366 h 34.4246 z m 80.3359,-22.03667 -9.0263,10.33358 q 14.5043,12.4501 34.6735,12.4501 31.1875,-0.37351 31.8722,-26.39421 0,-9.64882 -6.0382,-16.93213 -6.1006,-7.40781 -18.8619,-9.15082 -6.4741,-0.80926 -10.2091,-1.43176 -6.7231,-1.24501 -9.7734,-4.48204 -3.0502,-3.17477 -3.0502,-7.09656 0.1245,-6.5363 4.5443,-9.83557 4.233,-3.17478 10.5825,-3.17478 12.2634,0.249 22.4725,6.97206 v 0 l 7.6568,-11.32959 q -12.5124,-9.02632 -29.4445,-9.39982 -14.0686,0.1245 -21.7254,7.34555 -7.9058,7.28331 -7.9058,19.17315 0,9.89783 6.2873,16.80763 6.1005,6.72306 17.8036,8.65282 6.5363,0.93376 12.0143,1.68077 11.9521,2.05426 11.8276,12.20109 -0.249,12.38785 -17.9281,12.63685 -14.9401,-0.1245 -25.7717,-9.02632 z m 127.0238,22.03667 h 13.7574 v -90.76121 h -13.7574 z m 87.8683,0 h 13.7574 v -64.4915 h 0.249 l 41.023,64.4915 h 13.0104 v -90.76121 h -13.7574 v 64.49151 h -0.249 l -41.0853,-64.49151 h -12.9481 z m 171.6574,-36.97679 h 18.4884 v 4.73104 q -0.1245,8.52832 -5.3536,13.75736 -5.229,5.47804 -13.2593,5.47804 -4.8556,0 -8.3416,-2.05427 -3.5483,-1.74301 -5.727,-4.54428 -2.6768,-2.92577 -3.5483,-7.65681 -0.996,-4.73104 -0.996,-18.11489 0,-13.38386 0.996,-18.2394 0.8715,-4.60653 3.5483,-7.53231 2.1787,-2.80127 5.727,-4.66878 3.486,-1.80527 8.3416,-1.92977 6.5985,0.1245 11.2051,3.79728 4.4197,3.85953 6.1005,9.33758 h 14.5666 q -2.1788,-11.39184 -10.4581,-19.1109 -8.2793,-7.65681 -21.4141,-7.78131 -10.7071,0.1245 -17.8659,5.10453 -7.2833,4.91779 -10.5826,11.20509 -2.0543,3.29928 -3.0503,8.65282 -0.9337,5.35354 -0.9337,21.16517 0,15.56262 0.9337,21.04066 0.498,2.92577 1.245,4.85554 0.8093,1.86751 1.8053,3.92178 3.2993,6.2873 10.5826,11.08059 7.1588,4.98004 17.8659,5.22904 13.8818,-0.249 23.0326,-9.39983 9.0886,-9.21307 9.3376,-22.84593 v -18.48839 h -32.2457 z"
     id="text1-3-1-6"
     style="font-size:127.489px;line-height:5.7;font-family:'DIN Alternate';-inkscape-font-specification:'DIN Alternate, Normal';letter-spacing:55px;fill:#feffff;fill-rule:evenodd;stroke-width:3.98404"
     inkscape:label="LEASING"
     aria-label="LEASING" /><path
     d="m 1045.7091,548.49817 h 13.8196 V 470.0003 h 24.8379 v -12.26334 h -63.4955 v 12.26334 h 24.838 z m 81.126,-78.49787 h 21.5386 q 6.5986,0 10.0846,2.80128 4.4198,3.17477 4.5443,10.27133 0,5.91379 -3.7973,9.96007 -3.8595,4.35754 -11.5786,4.48204 h -20.7916 z m -13.7574,78.49787 h 13.7574 v -38.78205 h 17.5546 l 18.7374,38.78205 h 16.3719 l -21.0407,-40.27607 q 17.3056,-6.6608 17.5546,-25.14919 -0.3735,-12.5746 -9.0263,-19.35991 -7.1588,-5.97604 -18.4884,-5.97604 h -35.4205 z m 112.8115,-32.49476 13.1348,-39.65356 h 0.249 l 13.1349,39.65356 z m 37.4748,32.49476 h 14.5043 l -32.9927,-90.76121 h -11.5164 l -32.9927,90.76121 h 14.5666 l 6.9721,-20.29366 h 34.4245 z m 43.2154,0 h 13.7574 v -64.49151 h 0.249 l 41.0231,64.49151 h 13.0103 v -90.76121 h -13.7573 v 64.4915 h -0.249 l -41.0854,-64.4915 h -12.9481 z m 107.3335,-22.03667 -9.0264,10.33358 q 14.5044,12.45009 34.6736,12.45009 31.1875,-0.3735 31.8722,-26.3942 0,-9.64883 -6.0383,-16.93213 -6.1005,-7.40781 -18.8619,-9.15083 -6.474,-0.80925 -10.2091,-1.43176 -6.723,-1.24501 -9.7733,-4.48203 -3.0503,-3.17478 -3.0503,-7.09656 0.1245,-6.5363 4.5443,-9.83558 4.2331,-3.17477 10.5826,-3.17477 12.2634,0.249 22.4724,6.97205 v 0 l 7.6568,-11.32958 q -12.5123,-9.02632 -29.4444,-9.39983 -14.0686,0.1245 -21.7255,7.34556 -7.9058,7.28331 -7.9058,19.17315 0,9.89783 6.2873,16.80763 6.1006,6.72305 17.8037,8.65282 6.5363,0.93376 12.0143,1.68076 11.9521,2.05427 11.8276,12.2011 -0.249,12.38785 -17.9281,12.63685 -14.9402,-0.1245 -25.7717,-9.02632 z m 104.7811,-55.71419 h 19.8579 q 5.6026,-0.1245 9.8356,2.55227 2.8013,1.61851 4.3575,4.41978 1.4941,3.11253 1.4941,7.65681 0,5.47805 -3.6728,9.96008 -3.8596,4.60654 -11.5164,4.73104 h -20.3559 z m -13.7573,77.75086 h 13.7573 v -35.42053 h 20.9162 q 14.0064,-0.249 21.2897,-8.96407 7.0965,-8.27931 7.0965,-18.36389 0,-7.47006 -2.8013,-12.9481 -2.6767,-5.6648 -6.972,-8.71507 -5.1045,-4.04628 -10.0846,-5.35354 -4.98,-0.99601 -10.3336,-0.99601 h -32.8682 z m 91.4595,-45.38061 q 0,15.56263 0.9338,21.04067 0.498,2.92577 1.245,4.85554 0.8093,1.86751 1.8053,3.92178 3.2992,6.2873 10.5825,11.08058 7.1589,4.98004 17.8659,5.22904 10.8316,-0.249 18.0527,-5.22904 7.1588,-4.79328 10.3336,-11.08058 2.3032,-3.29928 3.1747,-8.77732 0.8093,-5.47804 0.8093,-21.04067 0,-15.81162 -0.8093,-21.16516 -0.8715,-5.35354 -3.1747,-8.65282 -3.1748,-6.2873 -10.3336,-11.20509 -7.2211,-4.98004 -18.0527,-5.10454 -10.707,0.1245 -17.8659,5.10454 -7.2833,4.91779 -10.5825,11.20509 -2.0543,3.29928 -3.0503,8.65282 -0.9338,5.35354 -0.9338,21.16516 z m 13.8196,0 q 0,-13.38385 0.996,-18.23939 0.8716,-4.60654 3.5483,-7.53231 2.1788,-2.80127 5.7271,-4.66878 3.486,-1.80527 8.3415,-1.92977 4.9178,0.1245 8.5284,1.92977 3.4237,1.86751 5.478,4.66878 2.6768,2.92577 3.6728,7.53231 0.9337,4.85554 0.9337,18.23939 0,13.38386 -0.9337,18.1149 -0.996,4.73103 -3.6728,7.65681 -2.0543,2.80127 -5.478,4.54428 -3.6106,2.05427 -8.5284,2.05427 -4.8555,0 -8.3415,-2.05427 -3.5483,-1.74301 -5.7271,-4.54428 -2.6767,-2.92578 -3.5483,-7.65681 -0.996,-4.73104 -0.996,-18.1149 z m 99.8012,-33.11726 h 21.5386 q 6.5986,0 10.0846,2.80128 4.4198,3.17477 4.5443,10.27133 0,5.91379 -3.7973,9.96007 -3.8595,4.35754 -11.5786,4.48204 h -20.7916 z m -13.7574,78.49787 h 13.7574 v -38.78205 h 17.5546 l 18.7374,38.78205 h 16.3719 l -21.0407,-40.27607 q 17.3057,-6.6608 17.5547,-25.14919 -0.3736,-12.5746 -9.0264,-19.35991 -7.1588,-5.97604 -18.4884,-5.97604 h -35.4205 z m 109.8235,0 h 13.8196 V 470.0003 h 24.838 v -12.26334 h -63.4955 v 12.26334 h 24.8379 z"
     id="text1-3-1"
     style="font-size:127.489px;line-height:5.7;font-family:'DIN Alternate';-inkscape-font-specification:'DIN Alternate, Normal';letter-spacing:19px;fill:#feffff;fill-rule:evenodd;stroke-width:3.98404"
     inkscape:label="TRANSPORT"
     aria-label="TRANSPORT" /><path
     d="m 1038.09,358.38818 h 21.5387 q 6.5985,0 10.0846,2.80127 4.4198,3.17478 4.5443,10.27133 0,5.9138 -3.7973,9.96008 -3.8596,4.35754 -11.5786,4.48204 H 1038.09 Z m -13.7573,78.49787 h 13.7573 v -38.78206 h 17.5547 l 18.7374,38.78206 h 16.3718 l -21.0406,-40.27607 q 17.3056,-6.6608 17.5546,-25.1492 -0.3735,-12.57459 -9.0263,-19.3599 -7.1588,-5.97604 -18.4884,-5.97604 h -35.4205 z m 77.7508,0 h 57.9552 V 423.8757 h -44.1978 v -26.64321 h 37.7238 v -12.2011 h -37.7238 v -25.8962 h 44.1978 v -13.01035 h -57.9552 z m 70.9033,0 h 13.7574 v -38.78206 h 37.7238 V 385.9029 h -37.7238 v -26.76771 h 44.1978 v -13.01035 h -57.9552 z m 82.2329,-78.49787 h 21.5387 q 6.5985,0 10.0846,2.80127 4.4198,3.17478 4.5443,10.27133 0,5.9138 -3.7973,9.96008 -3.8596,4.35754 -11.5786,4.48204 h -20.7917 z m -13.7573,78.49787 h 13.7573 v -38.78206 h 17.5547 l 18.7374,38.78206 h 16.3718 l -21.0406,-40.27607 q 17.3056,-6.6608 17.5546,-25.1492 -0.3735,-12.57459 -9.0263,-19.3599 -7.1588,-5.97604 -18.4884,-5.97604 h -35.4205 z m 77.7508,0 h 13.7574 v -90.76121 h -13.7574 z m 62.3128,-36.97679 h 18.4884 v 4.73103 q -0.1245,8.52832 -5.3536,13.75736 -5.229,5.47805 -13.2593,5.47805 -4.8556,0 -8.3416,-2.05427 -3.5483,-1.74301 -5.7271,-4.54429 -2.6767,-2.92577 -3.5482,-7.65681 -0.996,-4.73103 -0.996,-18.11489 0,-13.38385 0.996,-18.23939 0.8715,-4.60654 3.5482,-7.53231 2.1788,-2.80127 5.7271,-4.66879 3.486,-1.80526 8.3416,-1.92976 6.5985,0.1245 11.205,3.79728 4.4198,3.85953 6.1006,9.33757 h 14.5666 q -2.1788,-11.39184 -10.4581,-19.1109 -8.2793,-7.65681 -21.4141,-7.78131 -10.7071,0.1245 -17.8659,5.10454 -7.2833,4.91779 -10.5826,11.20509 -2.0543,3.29927 -3.0503,8.65282 -0.9337,5.35354 -0.9337,21.16516 0,15.56262 0.9337,21.04067 0.498,2.92577 1.245,4.85553 0.8093,1.86752 1.8053,3.92179 3.2993,6.28729 10.5826,11.08058 7.1588,4.98004 17.8659,5.22904 13.8818,-0.249 23.0326,-9.39982 9.0886,-9.21307 9.3376,-22.84593 v -18.48839 h -32.2457 z m 48.3064,36.97679 h 57.9552 V 423.8757 h -44.1979 v -26.64321 h 37.7238 v -12.2011 h -37.7238 v -25.8962 h 44.1979 v -13.01035 h -57.9552 z m 84.6606,-78.49787 h 21.5387 q 6.5985,0 10.0846,2.80127 4.4197,3.17478 4.5442,10.27133 0,5.9138 -3.7972,9.96008 -3.8596,4.35754 -11.5786,4.48204 h -20.7917 z m -13.7573,78.49787 h 13.7573 v -38.78206 h 17.5546 l 18.7374,38.78206 h 16.3719 l -21.0406,-40.27607 q 17.3056,-6.6608 17.5546,-25.1492 -0.3735,-12.57459 -9.0263,-19.3599 -7.1588,-5.97604 -18.4884,-5.97604 h -35.4205 z m 93.8115,-32.49476 13.1348,-39.65356 h 0.249 l 13.1349,39.65356 z m 37.4748,32.49476 h 14.5043 l -32.9927,-90.76121 h -11.5164 l -32.9927,90.76121 h 14.5666 l 6.972,-20.29366 h 34.4246 z m 30.1292,0 h 13.8196 v -78.49787 h 24.8379 v -12.26334 h -63.4955 v 12.26334 h 24.838 z m 48.3686,0 h 57.9552 V 423.8757 h -44.1978 v -26.64321 h 37.7238 v -12.2011 h -37.7238 v -25.8962 h 44.1978 v -13.01035 h -57.9552 z m 70.9033,0 h 30.814 q 10.2091,0 17.2434,-4.48204 7.0966,-4.17078 11.0806,-10.58258 1.494,-2.42777 2.5523,-4.66879 0.996,-2.30327 1.494,-5.22904 1.0582,-5.78929 1.0582,-20.41816 0,-13.75736 -0.6847,-19.3599 -0.8715,-5.60254 -4.1708,-10.70708 -9.2131,-15.18912 -27.6392,-15.31362 h -31.7478 z m 13.7574,-77.75086 h 16.4341 q 10.4581,-0.249 16.1851,7.65681 2.8013,3.17477 3.5483,8.27931 0.5603,5.10454 0.5603,16.93214 0,12.13884 -0.5603,16.55863 -0.6225,4.48203 -2.9258,7.4078 -5.229,7.90582 -16.8076,7.90582 h -16.4341 z"
     id="text1-3"
     style="font-size:127.489px;line-height:1.1;font-family:'DIN Alternate';-inkscape-font-specification:'DIN Alternate, Normal';fill:#feffff;fill-rule:evenodd;stroke-width:3.98404"
     inkscape:label="REFRIGERATED"
     aria-label="REFRIGERATED" /><path
     d="M 70.057577,668.13684 V 344.59464 H 236.68402 q 46.34642,0 70.84382,7.94511 24.4974,7.9451 39.50481,29.57343 15.00741,21.40764 15.00741,52.30525 0,26.92507 -11.47625,46.56713 -11.47626,19.42136 -31.55971,31.55971 -12.80045,7.7244 -35.09087,12.80044 17.87648,5.95882 26.04228,11.91765 5.51743,3.97255 15.8902,16.99369 10.59347,13.02114 14.12463,20.08345 l 48.3327,93.79634 h -112.997 L 221.8973,569.26446 q -10.15208,-19.20066 -18.09718,-24.93879 -10.81416,-7.5037 -24.49739,-7.5037 h -8.8279 V 668.13684 Z M 170.47483,475.68882 h 42.15318 q 6.84162,0 26.48368,-4.41394 9.93137,-1.98628 16.1109,-10.15208 6.40022,-8.1658 6.40022,-18.75927 0,-15.6695 -9.93138,-24.056 -9.93138,-8.38649 -37.29784,-8.38649 H 170.47483 Z M 393.59978,344.59464 h 303.90014 v 79.89242 H 595.53778 V 668.13684 H 495.56192 V 424.48706 H 393.59978 Z m 349.14307,0 h 99.97587 v 243.87049 h 156.03297 v 79.67171 H 742.74285 Z"
     id="text2-0"
     style="font-size:451.988px;line-height:1.1;font-family:'Arial Black';-inkscape-font-specification:'Arial Black, Normal';fill:#feffff;fill-rule:evenodd;stroke-width:1.52162"
     inkscape:label="RTL"
     aria-label="RTL" /><rect
     style="fill:#feffff;fill-rule:evenodd"
     id="rect1"
     width="1789.3887"
     height="31.1499"
     x="67.109093"
     y="271.97113" /><rect
     style="fill:#feffff;fill-rule:evenodd"
     id="rect1-6"
     width="1789.3887"
     height="31.1499"
     x="62.959534"
     y="704.59875" /></svg>
